<svg width="9" height="11" viewBox="0 0 9 11" fill="none" xmlns="http://www.w3.org/2000/svg">
<path d="M8.4439 6.59992L4.78765 10.2562C4.74992 10.2939 4.70511 10.3239 4.6558 10.3444C4.60648 10.3648 4.55361 10.3753 4.50023 10.3753C4.44684 10.3753 4.39397 10.3648 4.34466 10.3444C4.29534 10.3239 4.25053 10.2939 4.2128 10.2562L0.556554 6.59992C0.480325 6.52369 0.4375 6.4203 0.4375 6.3125C0.4375 6.2047 0.480325 6.10131 0.556554 6.02508C0.632783 5.94885 0.736172 5.90602 0.843976 5.90602C0.95178 5.90602 1.05517 5.94885 1.1314 6.02508L4.09398 8.98816V1.03125C4.09398 0.923506 4.13678 0.820175 4.21296 0.743988C4.28915 0.667801 4.39248 0.625 4.50023 0.625C4.60797 0.625 4.7113 0.667801 4.78749 0.743988C4.86367 0.820175 4.90648 0.923506 4.90648 1.03125V8.98816L7.86905 6.02508C7.94528 5.94885 8.04867 5.90602 8.15648 5.90602C8.26428 5.90602 8.36767 5.94885 8.4439 6.02508C8.52013 6.10131 8.56295 6.2047 8.56295 6.3125C8.56295 6.4203 8.52013 6.52369 8.4439 6.59992Z" fill="#F33939"/>
</svg>
