<svg width="9" height="11" viewBox="0 0 9 11" fill="none" xmlns="http://www.w3.org/2000/svg">
<path d="M8.4439 4.97524C8.40617 5.01301 8.36136 5.04298 8.31204 5.06342C8.26273 5.08387 8.20986 5.09439 8.15648 5.09439C8.10309 5.09439 8.05022 5.08387 8.00091 5.06342C7.95159 5.04298 7.90678 5.01301 7.86905 4.97524L4.90648 2.01216V9.96907C4.90648 10.0768 4.86367 10.1801 4.78749 10.2563C4.7113 10.3325 4.60797 10.3753 4.50023 10.3753C4.39248 10.3753 4.28915 10.3325 4.21296 10.2563C4.13678 10.1801 4.09398 10.0768 4.09398 9.96907V2.01216L1.1314 4.97524C1.05517 5.05147 0.95178 5.0943 0.843976 5.0943C0.736172 5.0943 0.632783 5.05147 0.556554 4.97524C0.480325 4.89901 0.4375 4.79562 0.4375 4.68782C0.4375 4.58002 0.480325 4.47663 0.556554 4.4004L4.2128 0.744148C4.25053 0.706376 4.29534 0.676411 4.34466 0.655967C4.39397 0.635523 4.44684 0.625 4.50023 0.625C4.55361 0.625 4.60648 0.635523 4.6558 0.655967C4.70511 0.676411 4.74992 0.706376 4.78765 0.744148L8.4439 4.4004C8.48167 4.43813 8.51163 4.48293 8.53208 4.53225C8.55252 4.58157 8.56305 4.63443 8.56305 4.68782C8.56305 4.74121 8.55252 4.79407 8.53208 4.84339C8.51163 4.89271 8.48167 4.93751 8.4439 4.97524Z" fill="#74B300"/>
</svg>
