<svg width="16" height="16" viewBox="0 0 16 16" fill="none" xmlns="http://www.w3.org/2000/svg">
<path d="M11.5326 8.5306L6.53255 13.5306C6.39165 13.6715 6.20056 13.7506 6.0013 13.7506C5.80204 13.7506 5.61095 13.6715 5.47005 13.5306C5.32915 13.3897 5.25 13.1986 5.25 12.9993C5.25 12.8001 5.32915 12.609 5.47005 12.4681L9.93943 7.99997L5.4713 3.5306C5.40154 3.46083 5.3462 3.37801 5.30844 3.28686C5.27068 3.19571 5.25125 3.09801 5.25125 2.99935C5.25125 2.90069 5.27068 2.80299 5.30844 2.71184C5.3462 2.62069 5.40154 2.53786 5.4713 2.4681C5.54107 2.39833 5.62389 2.34299 5.71504 2.30524C5.80619 2.26748 5.90389 2.24805 6.00255 2.24805C6.10121 2.24805 6.19891 2.26748 6.29006 2.30524C6.38121 2.34299 6.46404 2.39833 6.5338 2.4681L11.5338 7.4681C11.6036 7.53786 11.659 7.62072 11.6968 7.71193C11.7345 7.80313 11.7539 7.9009 11.7538 7.99961C11.7537 8.09832 11.7341 8.19604 11.6961 8.28715C11.6581 8.37827 11.6026 8.461 11.5326 8.5306Z" fill="#898B94"/>
</svg>
